<svg width="276" height="236" viewBox="0 0 276 236" fill="none" xmlns="http://www.w3.org/2000/svg">
<path d="M138 2.82529H266.09C269.609 2.82529 271.721 4.1532 272.819 6.89377C273.1 7.83636 273.21 8.82218 273.142 9.80386V188.322C273.142 193.846 270.918 196.064 265.386 196.064H10.5566C9.46286 196.112 8.36797 196.002 7.30507 195.739C6.02739 195.386 4.90104 194.62 4.09976 193.561C3.29848 192.501 2.86673 191.207 2.87113 189.876C2.87113 189.354 2.87113 188.831 2.87113 188.308V10.5102C2.87113 4.97254 4.98253 2.82529 10.4581 2.82529H138ZM137.887 178.999H253.788C256.35 178.999 256.35 178.999 256.35 176.484C256.35 125.176 256.35 73.8494 256.35 22.5037C256.35 19.9327 256.35 19.9186 253.816 19.9186H22.2114C19.6496 19.9186 19.6355 19.9186 19.6355 22.4614V176.442C19.6355 178.985 19.6355 178.999 22.1832 178.999H137.887Z" stroke="#21BF48" stroke-width="3" stroke-miterlimit="10"/>
<path d="M137.999 233.175H74.8973C71.9554 233.175 71.688 232.92 71.7021 229.897C71.6436 227.876 71.6905 225.853 71.8428 223.837C72.1146 220.456 73.6609 217.307 76.1666 215.031C78.6723 212.755 81.9487 211.524 85.3275 211.589C89.6348 211.589 93.9561 211.589 98.2774 211.589H190.08C196.626 211.589 201.791 215.149 203.551 220.941C204.607 224.43 204.283 228.004 204.17 231.607C204.174 231.827 204.13 232.045 204.043 232.248C203.956 232.45 203.826 232.631 203.664 232.779C203.502 232.928 203.31 233.04 203.101 233.108C202.892 233.176 202.671 233.199 202.453 233.175H137.999Z" stroke="#21BF48" stroke-width="3" stroke-miterlimit="10"/>
<path d="M92.6334 66.7909V107.377H100.882V117.265H92.6334V133.2H82.0202V117.322H50.9688V107.433C56.1111 100.718 61.1926 93.9658 66.213 87.1756C71.2334 80.3854 76.2913 73.6046 81.3868 66.8332L92.6334 66.7909ZM82.0202 107.56V87.0484C82.0202 86.6435 82.0202 85.9089 82.0202 84.8447C82.0202 83.7805 82.0624 82.6645 82.1469 81.4967L62.8488 107.56H82.0202Z" fill="#21BF48"/>
<path d="M216.093 66.7909V107.377H224.342V117.265H216.093V133.2H205.48V117.322H174.429V107.433C179.571 100.7 184.629 93.9235 189.602 87.105C194.576 80.2865 199.634 73.5057 204.776 66.7626L216.093 66.7909ZM205.48 107.56V87.0484C205.48 86.6435 205.48 85.9089 205.48 84.8447C205.48 83.7805 205.522 82.6645 205.607 81.4967L186.309 107.56H205.48Z" fill="#21BF48"/>
<path d="M166.489 90.5236C164.349 85.2241 160.811 80.6092 156.256 77.1739C156.256 77.0044 155.383 69.0935 155.383 68.924C155.321 68.3411 155.045 67.8023 154.609 67.4124C154.167 67.0179 153.596 66.8016 153.004 66.805C151.907 66.5225 146.206 71.3538 145.263 71.8341C139.974 70.4495 134.42 70.4495 129.132 71.8341C128.146 71.3255 122.516 66.5507 121.39 66.805C120.804 66.8044 120.238 67.0198 119.799 67.4104C119.361 67.801 119.08 68.3397 119.011 68.924C119.011 69.0935 118.139 76.9903 118.139 77.1739C94.4207 94.8464 107.047 133.257 137.211 133.257C159.113 133.681 174.836 110.16 166.489 90.5236Z" fill="#21BF48"/>
<path d="M145.615 97.0643H141.026V92.3319H145.615V97.0643ZM132.595 97.0643H128.006V92.3319H132.595V97.0643Z" fill="white"/>
<path d="M122.179 109.891L120.926 106.911C123.366 105.397 125.986 104.197 128.724 103.337C134.553 101.641 140.743 101.641 146.572 103.337C149.313 104.199 151.937 105.4 154.384 106.911L153.117 109.891C150.778 108.564 148.274 107.553 145.671 106.882C140.368 105.634 134.846 105.659 129.554 106.953C126.98 107.611 124.501 108.598 122.179 109.891Z" fill="white"/>
</svg>
