<svg width="124" height="38" viewBox="0 0 124 38" fill="none" xmlns="http://www.w3.org/2000/svg">
<path d="M94.5556 27.0053C94.4472 27.3051 94.3315 27.5995 94.2051 27.8975C94.3297 27.5995 94.4472 27.3086 94.5556 27.0053Z" fill="#21BF48"/>
<path d="M95.5512 22.8211C95.5151 23.1405 95.4681 23.4563 95.4121 23.7721C95.4663 23.4563 95.5132 23.1405 95.5512 22.8211Z" fill="#21BF48"/>
<path d="M95.6857 19.8146C95.6857 19.5077 95.6608 19.2025 95.6377 18.8956C95.6626 19.1936 95.6785 19.4987 95.6857 19.8146Z" fill="#21BF48"/>
<path d="M95.6904 20.9012C95.6904 20.6389 95.6904 20.3748 95.6904 20.1125C95.6993 20.3748 95.6975 20.6371 95.6904 20.9012Z" fill="#21BF48"/>
<path d="M124 8.34142V23.2958C124 30.929 116.969 37.3758 108.645 37.3758C103.096 37.3758 98.1222 34.4941 95.4342 30.3045C97.3021 26.8608 98.1331 22.7498 97.7826 18.5673C97.4304 14.3349 95.8912 10.3987 93.4199 7.35826C93.6536 6.11042 94.322 4.98268 95.3092 4.17055C96.2964 3.35841 97.5402 2.91308 98.825 2.91175C100.282 2.91364 101.679 3.48635 102.709 4.50426C103.74 5.52216 104.319 6.90212 104.32 8.34142V23.2958C104.32 24.7874 106.208 26.52 108.643 26.52C110.844 26.52 113.002 24.923 113.002 23.2958V8.34142C113.003 7.62753 113.146 6.92077 113.423 6.26151C113.701 5.60226 114.107 5.00342 114.619 4.4992C115.13 3.99499 115.737 3.59528 116.405 3.3229C117.074 3.05052 117.789 2.91081 118.512 2.91175C119.968 2.91552 121.363 3.48907 122.392 4.50677C123.421 5.52447 123.999 6.90336 124 8.34142Z" fill="#21BF48"/>
<path d="M28.5476 11.1249C27.1074 13.9183 26.3606 17.01 26.369 20.1447C26.364 24.1713 27.5975 28.1045 29.9061 31.4233V31.7266C29.9046 33.1662 29.325 34.5465 28.2944 35.5644C27.2638 36.5824 25.8664 37.1549 24.4089 37.1563C22.9517 37.1544 21.5548 36.5817 20.5246 35.5638C19.4943 34.5459 18.915 33.1659 18.9135 31.7266V25.5725H10.9956V31.7266C10.9947 33.1661 10.4154 34.5463 9.38512 35.5643C8.3548 36.5823 6.95759 37.1549 5.50025 37.1563C4.04306 37.1544 2.64613 36.5817 1.61591 35.5638C0.585694 34.5459 0.00631674 33.1659 0.00488281 31.7266V8.56088C0.00679473 7.12189 0.586385 5.74239 1.61655 4.72487C2.64672 3.70736 4.04338 3.13488 5.50025 3.133C6.95728 3.13441 8.35421 3.70673 9.38448 4.72435C10.4148 5.74197 10.9942 7.12175 10.9956 8.56088V14.715H18.9135V8.56088C18.9154 7.12189 19.495 5.74239 20.5252 4.72487C21.5554 3.70736 22.952 3.13488 24.4089 3.133C25.8661 3.13441 27.2632 3.70667 28.2938 4.72424C29.3243 5.74181 29.9042 7.12158 29.9061 8.56088V8.86957C29.4034 9.59096 28.9496 10.3444 28.5476 11.1249Z" fill="#21BF48"/>
<path d="M77.4262 13.9424C77.1823 13.9424 76.9348 13.9424 76.6855 13.9424C76.9981 13.9424 77.307 13.9424 77.6105 13.9424H77.4262ZM86.213 36.0286C86.4497 35.9269 86.6827 35.8216 86.9103 35.7092C86.6827 35.8199 86.4497 35.9269 86.213 36.0286ZM94.205 27.8904C94.3314 27.5995 94.4471 27.3051 94.5554 26.9982C94.4471 27.3087 94.3296 27.5995 94.205 27.8904ZM95.4117 23.7722C95.4677 23.4563 95.5147 23.1405 95.5508 22.8211C95.5129 23.1405 95.4659 23.4563 95.4117 23.7722ZM95.6375 18.8867C95.661 19.1936 95.6773 19.4987 95.6863 19.8056C95.6791 19.4987 95.6628 19.1936 95.6375 18.8867ZM95.6935 20.1125C95.6935 20.3748 95.6935 20.6389 95.6935 20.9012C95.6972 20.6371 95.699 20.3748 95.6935 20.1125Z" fill="#21BF48"/>
<path d="M95.694 20.1126C95.6631 16.9361 94.845 13.8154 93.3112 11.0233C92.9172 10.3228 92.4735 9.65085 91.9834 9.01233C91.7829 8.75539 91.5787 8.5038 91.3638 8.25935C90.4019 7.1565 89.2799 6.20044 88.0344 5.4223C87.6672 5.19192 87.2886 4.97991 86.8999 4.78708C86.5549 4.60865 86.199 4.45163 85.8395 4.30353C84.1565 3.62995 82.3696 3.24438 80.5555 3.16335C78.5575 3.13302 76.3825 3.15086 74.3339 3.11517C72.0776 3.13301 69.7869 3.01882 67.5523 3.30788C64.978 3.92704 63.2275 6.40902 63.4208 9.01769C68.0147 15.4769 67.9244 24.9445 63.4208 31.2806C63.3621 32.2444 63.5485 33.2074 63.9628 34.082C64.4118 35.0031 65.1148 35.7804 65.991 36.3245C66.8673 36.8687 67.8812 37.1576 68.9162 37.1581H73.3006C79.2331 37.1581 82.1524 37.2206 83.6898 36.878C86.6612 36.1726 89.3451 34.5913 91.3855 32.344C91.5661 32.1513 91.7323 31.9533 91.8967 31.7499C92.0611 31.5465 92.193 31.3752 92.3375 31.1842C94.6769 28.0028 95.75 24.0202 95.694 20.1126ZM84.8152 20.7067C84.7068 21.8701 84.4539 23.0531 83.8108 24.0452C83.6086 24.3621 83.3657 24.6517 83.0882 24.907C82.5465 25.3835 81.904 25.7346 81.2076 25.9348C78.9892 26.5736 76.7022 26.2916 74.4079 26.3059V13.9941C75.1685 13.9941 75.9344 13.9638 76.6932 13.9531C79.6089 13.8782 83.1875 14.037 84.313 17.2309C84.7221 18.3427 84.8931 19.5263 84.8152 20.7067Z" fill="#21BF48"/>
<path d="M56.7491 0.517212C56.801 0.582003 56.847 0.651281 56.8864 0.724199C56.8472 0.651149 56.8013 0.581851 56.7491 0.517212ZM36.2236 0.959729C36.2464 0.877826 36.2772 0.798334 36.3158 0.722413C36.2765 0.797997 36.2456 0.877569 36.2236 0.959729Z" fill="#21BF48"/>
<path d="M63.4131 13.5694C62.193 10.5453 60.1629 7.90598 57.5402 5.93437C57.5546 5.83801 57.0452 1.31478 57.0434 1.21664C57.0073 0.884293 56.848 0.576867 56.5962 0.353532C56.3444 0.130197 56.0179 0.00672613 55.6795 0.00687345C55.049 -0.155499 51.7756 2.61019 51.2373 2.8814C48.2035 2.09274 45.0146 2.09274 41.9808 2.8814C41.4172 2.59413 38.1872 -0.141225 37.5386 0.00687345C37.2002 0.00746825 36.8739 0.131152 36.622 0.354305C36.3701 0.577458 36.2102 0.884449 36.1729 1.21664C36.1729 1.31657 35.6689 5.83266 35.6761 5.93259C22.066 16.0372 29.3118 37.9967 46.6127 37.9967C59.1931 38.2412 68.2022 24.7946 63.4131 13.5694ZM46.6127 27.1302C37.3273 26.9679 37.2984 13.3446 46.5765 13.1412C55.8999 13.2715 55.9342 26.9714 46.6127 27.1392V27.1302Z" fill="#21BF48"/>
</svg>
